<?xml version="1.0" encoding="utf-8"?>
<svg id="master-artboard" viewBox="0 0 500 500" version="1.1" xmlns="http://www.w3.org/2000/svg" x="0px" y="0px" style="enable-background:new 0 0 1400 980;" width="500px" height="500px"><rect id="ee-background" x="0" y="0" width="500" height="500" style="fill: white; fill-opacity: 0; pointer-events: none;"/><g transform="matrix(2.63694510979278, -1.6631368649165537, 2.489856416756808, 1.770951251766567, -2582.7824272025105, 281.3309820574689)"><path d="M655.9,498l-36.8-38.2l-2.4-2.5v3.5v19.1l-47,0c-5.6,0-10.1,4.5-10.1,10v42c0,2.7,1.1,5.2,3,7.2c1.9,1.9,4.4,3,7.1,3h25.3&#10;&#9;&#9;h1.4v-1.4V518l20.3,0v19.1v3.5l2.4-2.5l36.8-38.2l0.9-1L655.9,498z M564.4,484.8c1.4-1.4,3.2-2.1,5.2-2.1c0,0,48.4,0,48.4,0h1.4&#10;&#9;&#9;v-1.4v-17l33.4,34.7l-33.4,34.7v-17v-1.4H618l-23.1,0h-1.4v0l-23.9,0c-2.9,0-5.4,1.2-7.3,3.1c0-12.4,0-28.5,0-28.5&#10;&#9;&#9;C562.3,488,563.1,486.2,564.4,484.8z M564.5,537.1c-1.4-1.4-2.1-3.2-2.1-5.1c0,0,0-4.8,0-6.6h0c0-1.9,0.8-3.8,2.1-5.2&#10;&#9;&#9;c1.4-1.4,3.2-2.1,5.1-2.1c0,0,18.6,0,23.9,0v21.2h-23.9C567.7,539.2,565.8,538.5,564.5,537.1z" style="fill: rgb(108, 99, 255); opacity: 1;" transform="matrix(1, 0, 0, 1, 0, 0)"/></g><g transform="matrix(-2.5866443131941197, 1.6982046451548765, -2.542069923072318, -1.737349523453804, 3075.0945819089875, 177.82322991188002)"><path d="M655.9,498l-36.8-38.2l-2.4-2.5v3.5v19.1l-47,0c-5.6,0-10.1,4.5-10.1,10v42c0,2.7,1.1,5.2,3,7.2c1.9,1.9,4.4,3,7.1,3h25.3&#10;&#9;&#9;h1.4v-1.4V518l20.3,0v19.1v3.5l2.4-2.5l36.8-38.2l0.9-1L655.9,498z M564.4,484.8c1.4-1.4,3.2-2.1,5.2-2.1c0,0,48.4,0,48.4,0h1.4&#10;&#9;&#9;v-1.4v-17l33.4,34.7l-33.4,34.7v-17v-1.4H618l-23.1,0h-1.4v0l-23.9,0c-2.9,0-5.4,1.2-7.3,3.1c0-12.4,0-28.5,0-28.5&#10;&#9;&#9;C562.3,488,563.1,486.2,564.4,484.8z M564.5,537.1c-1.4-1.4-2.1-3.2-2.1-5.1c0,0,0-4.8,0-6.6h0c0-1.9,0.8-3.8,2.1-5.2&#10;&#9;&#9;c1.4-1.4,3.2-2.1,5.1-2.1c0,0,18.6,0,23.9,0v21.2h-23.9C567.7,539.2,565.8,538.5,564.5,537.1z" style="fill: rgb(108, 99, 255); opacity: 1;" transform="matrix(1, 0, 0, 1, 0, 0)"/></g><path d="M 111.9134521484375 418.25439453125 L 297.2828674316406 428.01068115234375 L 115.0177230834961 292.30963134765625" style="fill: rgb(108, 99, 255); fill-opacity: 1; stroke: rgb(0, 0, 0); stroke-opacity: 1; stroke-width: 0; paint-order: fill;" transform="matrix(0.9995448366694548, -0.03708063358657076, 0.03708063358657076, 0.9995448366694548, -12.157623066968085, 8.150502655053288)"/><path d="M 153.1559295654297 334.2912292480469 L 314.5780944824219 237.1718292236328 L 389.52410888671875 293.4922180175781" style="fill: rgb(108, 99, 255); fill-opacity: 1; stroke: rgb(0, 0, 0); stroke-opacity: 1; stroke-width: 0; paint-order: stroke;" transform="matrix(0.9995448366694548, -0.03708063358657076, 0.03708063358657076, 0.9995448366694548, -12.157623066968085, 8.150502655053288)"/><path d="M 247.17103576660156 396.82012939453125 L 382.8721008300781 289.5010070800781 C 382.8721008300781 289.5010070800781 157.59060668945312 328.9696044921875 157.1471405029297 328.9696044921875" style="fill: rgb(108, 99, 255); fill-opacity: 1; stroke: rgb(0, 0, 0); stroke-opacity: 1; stroke-width: 0; paint-order: stroke;" transform="matrix(0.9995448366694548, -0.03708063358657076, 0.03708063358657076, 0.9995448366694548, -12.157623066968085, 8.150502655053288)"/><path d="M 390.8544921875 302.3615417480469 L 287.97003173828125 370.6555480957031" style="fill: rgb(108, 99, 255); fill-opacity: 1; stroke: rgb(0, 0, 0); stroke-opacity: 1; stroke-width: 0; paint-order: stroke;" transform="matrix(0.9995448366694548, -0.03708063358657076, 0.03708063358657076, 0.9995448366694548, -12.157623066968085, 8.150502655053288)"/><path d="M 390.4110412597656 209.23338317871094 L 208.58937072753906 70.42805480957031 L 396.1761169433594 83.28861236572266" style="fill: rgb(108, 99, 255); fill-opacity: 1; stroke: rgb(0, 0, 0); stroke-opacity: 1; stroke-width: 0; paint-order: stroke;" transform="matrix(0.9995448366694548, -0.03708063358657076, 0.03708063358657076, 0.9995448366694548, -12.157623066968085, 8.150502655053288)"/><path d="M 352.71630859375 165.33009338378906 C 352.71630859375 165.33009338378906 189.96372985839844 261.11907958984375 189.520263671875 261.11907958984375 C 189.07679748535156 261.11907958984375 363.802978515625 154.243408203125 363.802978515625 154.243408203125 L 258.2577209472656 106.34892272949219 L 189.520263671875 265.5537414550781" style="fill: rgb(108, 99, 255); fill-opacity: 1; stroke: rgb(0, 0, 0); stroke-opacity: 1; stroke-width: 0; paint-order: stroke;" transform="matrix(0.9995448366694548, -0.03708063358657076, 0.03708063358657076, 0.9995448366694548, -12.157623066968085, 8.150502655053288)"/><path d="M 327.8821105957031 250.91932678222656 L 202.82427978515625 137.3916473388672 L 224.11073303222656 303.24847412109375" style="fill: rgb(108, 99, 255); fill-opacity: 1; stroke: rgb(0, 0, 0); stroke-opacity: 1; stroke-width: 0; paint-order: stroke;" transform="matrix(0.9995448366694548, -0.03708063358657076, 0.03708063358657076, 0.9995448366694548, -12.157623066968085, 8.150502655053288)"/><path d="M 121.66973876953125 183.9557342529297 L 235.19741821289062 299.70074462890625 L 268.4574890136719 95.70570373535156" style="fill: rgb(108, 99, 255); fill-opacity: 1; stroke: rgb(0, 0, 0); stroke-opacity: 1; stroke-width: 0; paint-order: stroke;" transform="matrix(0.9995448366694548, -0.03708063358657076, 0.03708063358657076, 0.9995448366694548, -12.157623066968085, 8.150502655053288)"/><path d="M 114.57425689697266 209.23338317871094 L 237.4147491455078 297.0399475097656 L 124.3305435180664 180.40798950195312" style="fill: rgb(108, 99, 255); fill-opacity: 1; stroke: rgb(0, 0, 0); stroke-opacity: 1; stroke-width: 0; paint-order: stroke;" transform="matrix(0.9995448366694548, -0.03708063358657076, 0.03708063358657076, 0.9995448366694548, -12.157623066968085, 8.150502655053288)"/><path d="M 113.24385070800781 201.69442749023438 L 130.98255920410156 202.1378936767578 L 118.12199401855469 184.39920043945312" style="fill: rgb(108, 99, 255); fill-opacity: 1; stroke: rgb(0, 0, 0); stroke-opacity: 1; stroke-width: 0; paint-order: stroke;" transform="matrix(0.9995448366694548, -0.03708063358657076, 0.03708063358657076, 0.9995448366694548, -12.157623066968085, 8.150502655053288)"/><path d="M 337.1949462890625 313.8916931152344 L 381.54168701171875 313.8916931152344 L 265.35321044921875 383.0726318359375" style="fill: rgb(108, 99, 255); fill-opacity: 1; stroke: rgb(0, 0, 0); stroke-opacity: 1; stroke-width: 0; paint-order: stroke;" transform="matrix(0.9995448366694548, -0.03708063358657076, 0.03708063358657076, 0.9995448366694548, -12.157623066968085, 8.150502655053288)"/><path d="M 340.74267578125 319.65679931640625 L 383.759033203125 289.9444580078125 L 387.3067626953125 310.3439636230469" style="fill: rgb(108, 99, 255); fill-opacity: 1; stroke: rgb(0, 0, 0); stroke-opacity: 1; stroke-width: 0; paint-order: stroke;" transform="matrix(0.9995448366694548, -0.03708063358657076, 0.03708063358657076, 0.9995448366694548, -12.157623066968085, 8.150502655053288)"/><path d="M 368.2477722167969 318.44677734375 L 381.58111572265625 314.94677734375 L 372.58111572265625 284.2801208496094" style="fill: rgb(108, 99, 255); fill-opacity: 1; stroke: rgb(0, 0, 0); stroke-opacity: 1; stroke-width: 0; paint-order: stroke;" transform="matrix(0.9995448366694548, -0.03708063358657076, 0.03708063358657076, 0.9995448366694548, -12.157623066968085, 8.150502655053288)"/></svg>